<mxfile host="app.diagrams.net" modified="2024-03-06T08:40:45.723Z" agent="Mozilla/5.0 (Windows NT 10.0; Win64; x64; rv:123.0) Gecko/20100101 Firefox/123.0" etag="PlYLBQf2E5gv86F2ZYf4" version="24.0.1" type="gitlab">
  <diagram name="Seite-1" id="9JD0k8BntHnxnZWRM5X1">
    <mxGraphModel dx="1050" dy="530" grid="1" gridSize="10" guides="1" tooltips="1" connect="1" arrows="1" fold="1" page="1" pageScale="1" pageWidth="827" pageHeight="1169" math="0" shadow="0">
      <root>
        <mxCell id="0" />
        <mxCell id="1" parent="0" />
        <mxCell id="VIpPcUdQobLXL7xgqty4-5" value="RankingService" style="swimlane;fontStyle=0;childLayout=stackLayout;horizontal=1;startSize=30;horizontalStack=0;resizeParent=1;resizeParentMax=0;resizeLast=0;collapsible=1;marginBottom=0;whiteSpace=wrap;html=1;" vertex="1" parent="1">
          <mxGeometry x="245" y="75" width="170" height="80" as="geometry" />
        </mxCell>
        <mxCell id="VIpPcUdQobLXL7xgqty4-6" value="&lt;div&gt;showRankingList(playerName)&lt;br&gt;&lt;/div&gt;" style="text;strokeColor=none;fillColor=none;align=left;verticalAlign=middle;spacingLeft=4;spacingRight=4;overflow=hidden;points=[[0,0.5],[1,0.5]];portConstraint=eastwest;rotatable=0;whiteSpace=wrap;html=1;" vertex="1" parent="VIpPcUdQobLXL7xgqty4-5">
          <mxGeometry y="30" width="170" height="50" as="geometry" />
        </mxCell>
        <mxCell id="VIpPcUdQobLXL7xgqty4-1" value="&lt;div&gt;Player&lt;br&gt;&lt;/div&gt;" style="swimlane;fontStyle=0;childLayout=stackLayout;horizontal=1;startSize=30;horizontalStack=0;resizeParent=1;resizeParentMax=0;resizeLast=0;collapsible=1;marginBottom=0;whiteSpace=wrap;html=1;" vertex="1" parent="1">
          <mxGeometry x="60" y="70" width="140" height="90" as="geometry" />
        </mxCell>
        <mxCell id="VIpPcUdQobLXL7xgqty4-2" value="+ String playerName" style="text;strokeColor=none;fillColor=none;align=left;verticalAlign=middle;spacingLeft=4;spacingRight=4;overflow=hidden;points=[[0,0.5],[1,0.5]];portConstraint=eastwest;rotatable=0;whiteSpace=wrap;html=1;" vertex="1" parent="VIpPcUdQobLXL7xgqty4-1">
          <mxGeometry y="30" width="140" height="30" as="geometry" />
        </mxCell>
        <mxCell id="VIpPcUdQobLXL7xgqty4-3" value="int RankingPoints = 0" style="text;strokeColor=none;fillColor=none;align=left;verticalAlign=middle;spacingLeft=4;spacingRight=4;overflow=hidden;points=[[0,0.5],[1,0.5]];portConstraint=eastwest;rotatable=0;whiteSpace=wrap;html=1;" vertex="1" parent="VIpPcUdQobLXL7xgqty4-1">
          <mxGeometry y="60" width="140" height="30" as="geometry" />
        </mxCell>
        <mxCell id="VIpPcUdQobLXL7xgqty4-8" value="categories" style="swimlane;fontStyle=0;childLayout=stackLayout;horizontal=1;startSize=30;horizontalStack=0;resizeParent=1;resizeParentMax=0;resizeLast=0;collapsible=1;marginBottom=0;whiteSpace=wrap;html=1;" vertex="1" parent="1">
          <mxGeometry x="450" y="70" width="140" height="110" as="geometry" />
        </mxCell>
        <mxCell id="VIpPcUdQobLXL7xgqty4-9" value="&lt;div&gt;Random&lt;/div&gt;&lt;div&gt;specificcategories aufzÃ¤hlen&lt;br&gt;&lt;/div&gt;&lt;div&gt;----------&lt;/div&gt;&lt;div&gt;chooseCategorie()&lt;br&gt;&lt;/div&gt;" style="text;strokeColor=none;fillColor=none;align=left;verticalAlign=middle;spacingLeft=4;spacingRight=4;overflow=hidden;points=[[0,0.5],[1,0.5]];portConstraint=eastwest;rotatable=0;whiteSpace=wrap;html=1;" vertex="1" parent="VIpPcUdQobLXL7xgqty4-8">
          <mxGeometry y="30" width="140" height="80" as="geometry" />
        </mxCell>
        <mxCell id="VIpPcUdQobLXL7xgqty4-10" value="CountdownService" style="swimlane;fontStyle=0;childLayout=stackLayout;horizontal=1;startSize=30;horizontalStack=0;resizeParent=1;resizeParentMax=0;resizeLast=0;collapsible=1;marginBottom=0;whiteSpace=wrap;html=1;" vertex="1" parent="1">
          <mxGeometry x="60" y="200" width="140" height="60" as="geometry" />
        </mxCell>
        <mxCell id="VIpPcUdQobLXL7xgqty4-11" value="showtCountdown()" style="text;strokeColor=none;fillColor=none;align=left;verticalAlign=middle;spacingLeft=4;spacingRight=4;overflow=hidden;points=[[0,0.5],[1,0.5]];portConstraint=eastwest;rotatable=0;whiteSpace=wrap;html=1;" vertex="1" parent="VIpPcUdQobLXL7xgqty4-10">
          <mxGeometry y="30" width="140" height="30" as="geometry" />
        </mxCell>
        <mxCell id="VIpPcUdQobLXL7xgqty4-12" value="QuestionReader" style="swimlane;fontStyle=0;childLayout=stackLayout;horizontal=1;startSize=30;horizontalStack=0;resizeParent=1;resizeParentMax=0;resizeLast=0;collapsible=1;marginBottom=0;whiteSpace=wrap;html=1;" vertex="1" parent="1">
          <mxGeometry x="260" y="190" width="140" height="100" as="geometry" />
        </mxCell>
        <mxCell id="VIpPcUdQobLXL7xgqty4-13" value="&lt;div&gt;getQuestion()&lt;/div&gt;&lt;div&gt;getAnswerOptions()&lt;br&gt;showRightAnswer()&lt;br&gt;addQuestion()&lt;br&gt;&lt;/div&gt;" style="text;strokeColor=none;fillColor=none;align=left;verticalAlign=middle;spacingLeft=4;spacingRight=4;overflow=hidden;points=[[0,0.5],[1,0.5]];portConstraint=eastwest;rotatable=0;whiteSpace=wrap;html=1;" vertex="1" parent="VIpPcUdQobLXL7xgqty4-12">
          <mxGeometry y="30" width="140" height="70" as="geometry" />
        </mxCell>
        <mxCell id="VIpPcUdQobLXL7xgqty4-15" value="Belohnungssystem" style="swimlane;fontStyle=0;childLayout=stackLayout;horizontal=1;startSize=30;horizontalStack=0;resizeParent=1;resizeParentMax=0;resizeLast=0;collapsible=1;marginBottom=0;whiteSpace=wrap;html=1;" vertex="1" parent="1">
          <mxGeometry x="450" y="200" width="140" height="100" as="geometry" />
        </mxCell>
        <mxCell id="VIpPcUdQobLXL7xgqty4-20" value="?&lt;br&gt;Medallien / Titel sammeln?" style="text;strokeColor=none;fillColor=none;align=left;verticalAlign=middle;spacingLeft=4;spacingRight=4;overflow=hidden;points=[[0,0.5],[1,0.5]];portConstraint=eastwest;rotatable=0;whiteSpace=wrap;html=1;" vertex="1" parent="VIpPcUdQobLXL7xgqty4-15">
          <mxGeometry y="30" width="140" height="70" as="geometry" />
        </mxCell>
        <mxCell id="VIpPcUdQobLXL7xgqty4-17" value="GameMode" style="swimlane;fontStyle=0;childLayout=stackLayout;horizontal=1;startSize=30;horizontalStack=0;resizeParent=1;resizeParentMax=0;resizeLast=0;collapsible=1;marginBottom=0;whiteSpace=wrap;html=1;" vertex="1" parent="1">
          <mxGeometry x="50" y="300" width="140" height="100" as="geometry" />
        </mxCell>
        <mxCell id="VIpPcUdQobLXL7xgqty4-19" value="&lt;div&gt;chooseGameMode()&lt;/div&gt;&lt;div&gt;Solo/Competitive&lt;/div&gt;&lt;div&gt;Training (Ohne Zeit?)&lt;br&gt;&lt;/div&gt;" style="text;strokeColor=none;fillColor=none;align=left;verticalAlign=middle;spacingLeft=4;spacingRight=4;overflow=hidden;points=[[0,0.5],[1,0.5]];portConstraint=eastwest;rotatable=0;whiteSpace=wrap;html=1;" vertex="1" parent="VIpPcUdQobLXL7xgqty4-17">
          <mxGeometry y="30" width="140" height="70" as="geometry" />
        </mxCell>
        <mxCell id="VIpPcUdQobLXL7xgqty4-21" value="GameController" style="swimlane;fontStyle=0;childLayout=stackLayout;horizontal=1;startSize=30;horizontalStack=0;resizeParent=1;resizeParentMax=0;resizeLast=0;collapsible=1;marginBottom=0;whiteSpace=wrap;html=1;" vertex="1" parent="1">
          <mxGeometry x="250" y="315" width="190" height="140" as="geometry" />
        </mxCell>
        <mxCell id="VIpPcUdQobLXL7xgqty4-22" value="&lt;div&gt;showQuestion()&lt;/div&gt;&lt;div&gt;getPlayerAnswer()&lt;/div&gt;&lt;div&gt;compareAnswers()&lt;br&gt;&lt;/div&gt;&lt;div&gt;ShowRightAnswer()&lt;/div&gt;&lt;div&gt;CountPoints()&lt;/div&gt;&lt;div&gt;addPointsToRankingPoints()&lt;/div&gt;&lt;div&gt;Wenn COuntdown um, keine Antwort = 0 Punkte&lt;br&gt;&lt;/div&gt;" style="text;strokeColor=none;fillColor=none;align=left;verticalAlign=middle;spacingLeft=4;spacingRight=4;overflow=hidden;points=[[0,0.5],[1,0.5]];portConstraint=eastwest;rotatable=0;whiteSpace=wrap;html=1;" vertex="1" parent="VIpPcUdQobLXL7xgqty4-21">
          <mxGeometry y="30" width="190" height="110" as="geometry" />
        </mxCell>
        <mxCell id="VIpPcUdQobLXL7xgqty4-23" value="PlayOnline" style="swimlane;fontStyle=0;childLayout=stackLayout;horizontal=1;startSize=30;horizontalStack=0;resizeParent=1;resizeParentMax=0;resizeLast=0;collapsible=1;marginBottom=0;whiteSpace=wrap;html=1;" vertex="1" parent="1">
          <mxGeometry x="470" y="315" width="190" height="140" as="geometry" />
        </mxCell>
        <mxCell id="VIpPcUdQobLXL7xgqty4-25" value="?&lt;br&gt;Lobby mit Spieler B?" style="text;strokeColor=none;fillColor=none;align=left;verticalAlign=middle;spacingLeft=4;spacingRight=4;overflow=hidden;points=[[0,0.5],[1,0.5]];portConstraint=eastwest;rotatable=0;whiteSpace=wrap;html=1;" vertex="1" parent="VIpPcUdQobLXL7xgqty4-23">
          <mxGeometry y="30" width="190" height="110" as="geometry" />
        </mxCell>
        <mxCell id="VIpPcUdQobLXL7xgqty4-26" value="PointSystem" style="swimlane;fontStyle=0;childLayout=stackLayout;horizontal=1;startSize=30;horizontalStack=0;resizeParent=1;resizeParentMax=0;resizeLast=0;collapsible=1;marginBottom=0;whiteSpace=wrap;html=1;" vertex="1" parent="1">
          <mxGeometry x="620" y="90" width="190" height="110" as="geometry" />
        </mxCell>
        <mxCell id="VIpPcUdQobLXL7xgqty4-28" value="&lt;div&gt;countRankingPoints()&lt;/div&gt;&lt;div&gt;&lt;br&gt;&lt;/div&gt;" style="text;strokeColor=none;fillColor=none;align=left;verticalAlign=middle;spacingLeft=4;spacingRight=4;overflow=hidden;points=[[0,0.5],[1,0.5]];portConstraint=eastwest;rotatable=0;whiteSpace=wrap;html=1;" vertex="1" parent="VIpPcUdQobLXL7xgqty4-26">
          <mxGeometry y="30" width="190" height="80" as="geometry" />
        </mxCell>
      </root>
    </mxGraphModel>
  </diagram>
</mxfile>
